<svg id="Layer_1" data-name="Layer 1" xmlns="http://www.w3.org/2000/svg" viewBox="0 0 113.66 62.9"><defs><style>.cls-1{fill:#fff;opacity:0.72;}</style></defs><title>light_fishy</title><path class="cls-1" d="M36.32,37.15c-3.54,7.3-7.87,13.54-16.91,15.93,6-13.11,4.44-25-4.64-35.95,6.39-.55,7.62.08,20.4,10.28,3.49-2.95,6.86-6.07,10.51-8.83,16-12.1,32.48-11.68,47.77,1.36,5.24,4.47,5.83,2.77,1.15,9.29C89,37,82.18,43,72.76,45.73c-6.37,1.86-12.57.94-18.6-.94-4.91-1.53-9.57-3.87-14.32-5.89C38.69,38.42,37.61,37.8,36.32,37.15Zm40.57-7.86A5.31,5.31,0,0,0,81.24,23,5.09,5.09,0,0,0,75,18.57a5.54,5.54,0,0,0-4.55,6.27A5.72,5.72,0,0,0,76.89,29.29Z"/></svg>