<svg id="Layer_1" data-name="Layer 1" xmlns="http://www.w3.org/2000/svg" xmlns:xlink="http://www.w3.org/1999/xlink" viewBox="0 0 1299.25 2035.56"><defs><style>.cls-1{fill:none;}.cls-2{clip-path:url(#clip-path);}.cls-3{fill:#58c8de;}.cls-4{fill:#123753;opacity:0.31;}</style><clipPath id="clip-path"><rect class="cls-1" y="-146.89" width="1299.25" height="2182.45"/></clipPath></defs><title>wave_1</title><g class="cls-2"><path class="cls-3" d="M1304.27,2035.56h-1330s3-1199.88,3-1217.12c0-51.87-6.56-103.69-8.84-155.49-2.64-60.26,8-118.71,8.43-177.89.56-86.06,3.34-202.47,106.3-225.81,53-12,112.43-12.38,163.37,7.61,51.77,20.33,106.68,44.43,161.41,54.38,47.6,8.67,117.61,11.85,157.72-18.85,46.55-35.64,89.92-82.25,132.88-122.69,41.27-38.84,110.4-55.85,164.19-64.36,69.46-11,148.39-18,218.73-12.7,69.32,5.27,139.41,24.29,195.66,66.7,29.68,22.39,38.57,34.78,38,74-.54,35.52-7.8,70.77-7.8,106.25v376C1307.27,748.5,1304.27,2035.56,1304.27,2035.56Z"/><path class="cls-4" d="M1298.36,2185.5h-1330s8.91-1423.76,8.91-1441c0-51.87-6.56-103.69-8.84-155.49-2.64-60.26,8-118.71,8.43-177.89.56-86.06,3.34-202.47,106.3-225.81,53-12,112.43-12.39,163.37,7.61,51.77,20.33,106.68,44.43,161.41,54.38,47.6,8.67,117.61,11.85,157.72-18.85,46.55-35.64,89.92-82.26,132.88-122.69,41.27-38.84,110.4-55.85,164.19-64.37,69.46-11,148.39-18,218.73-12.69C1150.76,34,1220.85,53,1277.1,95.4c29.68,22.39,38.57,34.78,38,74-.54,35.52-7.8,70.77-7.8,106.24v376C1307.27,674.56,1298.36,2185.5,1298.36,2185.5Z"/></g></svg>